<svg width="456" height="504" viewBox="0 0 456 504" fill="none" xmlns="http://www.w3.org/2000/svg">
<g clip-path="url(#clip0_723_745)">
<path d="M159.17 327.611C158.94 327.791 158.71 327.971 158.49 328.151C158.72 327.981 158.95 327.801 159.17 327.621C159.24 327.561 159.31 327.501 159.38 327.451C159.31 327.501 159.24 327.551 159.17 327.611ZM162.64 324.951C162.53 325.051 162.39 325.141 162.28 325.241C162.47 325.101 162.67 324.941 162.87 324.801C162.8 324.851 162.72 324.891 162.64 324.951H162.64ZM219.15 296.741C219.185 296.737 219.219 296.727 219.25 296.711V296.701C219.215 296.71 219.182 296.723 219.15 296.741H219.15Z" fill="black"/>
<path d="M262.37 289.551C262.297 289.559 262.223 289.562 262.15 289.561C262.3 289.561 262.44 289.551 262.6 289.551H262.37ZM254.16 290.091C254.15 290.101 254.15 290.101 254.14 290.101C254.41 290.071 254.68 290.051 254.95 290.031C254.7 290.051 254.44 290.071 254.18 290.081C254.175 290.087 254.168 290.09 254.16 290.091V290.091ZM250.57 290.451L250.82 290.421C250.74 290.431 250.65 290.431 250.57 290.441V290.451ZM222.8 295.701C223.37 295.551 223.93 295.401 224.5 295.251C224.14 295.341 223.77 295.441 223.41 295.531C223.21 295.591 223.01 295.641 222.8 295.701V295.701ZM219.25 296.711V296.701C219.215 296.71 219.181 296.723 219.15 296.741C219.185 296.737 219.219 296.727 219.25 296.711V296.711ZM210.3 299.601C210.62 299.481 210.96 299.381 211.28 299.261H211.25C210.93 299.381 210.62 299.481 210.3 299.601V299.601ZM199.61 303.751L199.67 303.721C199.65 303.731 199.65 303.731 199.64 303.731C199.63 303.741 199.62 303.751 199.61 303.751V303.751ZM196.39 305.151C196.28 305.194 196.174 305.245 196.07 305.301C196.43 305.131 196.79 304.971 197.16 304.811C197.09 304.841 197.03 304.871 196.95 304.901C196.76 304.981 196.58 305.061 196.39 305.151H196.39ZM162.28 325.241C162.47 325.101 162.67 324.941 162.87 324.801C162.8 324.851 162.72 324.891 162.64 324.951C162.53 325.051 162.39 325.141 162.28 325.241H162.28ZM158.49 328.151C158.72 327.981 158.95 327.801 159.17 327.621C159.24 327.561 159.31 327.501 159.38 327.451C159.31 327.501 159.24 327.551 159.17 327.611C158.94 327.791 158.71 327.971 158.49 328.151V328.151ZM423.11 93.3308C422.49 92.6508 421.85 91.9608 421.21 91.2908C420.57 90.6108 419.93 89.9308 419.28 89.2708C418.73 88.7008 418.17 88.1308 417.61 87.5708C417.05 87.0108 416.49 86.4608 415.93 85.9108C415.801 85.7636 415.664 85.6234 415.52 85.4908C414.53 84.5108 413.54 83.5608 412.54 82.6108C411.4 81.5208 410.247 80.4475 409.08 79.3908C408.02 78.4208 406.957 77.4675 405.89 76.5308C405.59 76.2708 405.28 76.0008 404.98 75.7308C404.23 75.0808 403.48 74.4408 402.73 73.8108C402.26 73.4008 401.8 73.0108 401.32 72.6308C399.44 71.0508 397.54 69.5108 395.6 68.0008C394.97 67.4908 394.33 67.0008 393.69 66.5108C392.9 65.9108 392.12 65.3108 391.33 64.7308C390.71 64.2808 390.09 63.8108 389.47 63.3608C389.12 63.1008 388.75 62.8408 388.39 62.5908C387.78 62.1408 387.17 61.7008 386.55 61.2708C385.73 60.6908 384.89 60.1008 384.06 59.5308C383.42 59.0908 382.79 58.6508 382.15 58.2208C380.09 56.8408 378.007 55.4942 375.9 54.1808C375.32 53.8108 374.75 53.4408 374.15 53.0808C373.04 52.4108 371.94 51.7308 370.82 51.0708C369.57 50.3208 368.31 49.6008 367.05 48.8808L367.04 48.8708C360.9 45.3908 354.617 42.1941 348.19 39.2808C337.913 35.572 327.085 33.6214 316.16 33.5108C299.678 33.5183 283.588 38.5344 270.022 47.8943C256.457 57.2542 246.056 70.5159 240.198 85.9215C234.341 101.327 233.303 118.149 237.224 134.157C241.144 150.166 249.837 164.605 262.15 175.561C267.423 178.735 272.465 182.278 277.24 186.161L279.11 187.721C292.456 198.984 303.452 212.767 311.47 228.281C315.527 229.76 319.812 230.515 324.13 230.511C327.287 230.506 330.432 230.106 333.49 229.321C333.237 229.01 333 228.686 332.78 228.351C332.67 228.191 332.56 228.021 332.46 227.851C331.935 226.998 331.5 226.093 331.16 225.151C331.019 224.768 330.899 224.377 330.8 223.981C330.088 221.265 330.177 218.401 331.055 215.733C331.933 213.066 333.563 210.71 335.749 208.947C337.935 207.185 340.584 206.092 343.376 205.8C346.169 205.508 348.987 206.029 351.49 207.301C352.82 196.364 356.07 185.748 361.09 175.941C361.42 175.271 361.77 174.621 362.11 173.981L362.08 173.921C362.111 173.897 362.145 173.877 362.18 173.861C368.375 162.434 376.826 152.385 387.02 144.321C391.345 134.905 393.57 124.662 393.54 114.301C393.54 112.991 393.51 111.701 393.44 110.461L392.82 99.4108L403.82 100.721C405.241 100.887 406.67 100.973 408.1 100.981C414.303 100.999 420.397 99.3556 425.75 96.2208C424.88 95.2408 424 94.2808 423.11 93.3308V93.3308ZM454.36 394.321C442.955 366.611 425.461 341.824 403.173 321.795C380.885 301.767 354.376 287.011 325.61 278.621C324.885 268.544 322.986 258.587 319.95 248.951C321.33 249.041 322.74 249.101 324.13 249.101C332.41 249.114 340.588 247.278 348.067 243.726C355.546 240.174 362.138 234.996 367.36 228.571L369.58 225.831L369.44 222.311C369.39 221.231 369.37 220.131 369.37 219.041C369.33 206.986 372.168 195.097 377.65 184.361C382.995 173.911 390.653 164.817 400.04 157.771L401.81 156.441L402.8 154.451C408.208 143.522 411.335 131.607 411.99 119.431C424.682 118.545 436.635 113.138 445.68 104.191L451.75 98.2108L446.34 91.6408C426.961 68.1277 403.482 48.321 377.04 33.1808L377.01 33.1608C370.205 28.528 362.84 24.778 355.09 22.0008C320.82 6.6251 283.545 -0.89346 245.994 -0.00463985C208.443 0.884181 171.566 10.1579 138.061 27.1378C104.557 44.1177 75.2727 68.3742 52.3523 98.132C29.432 127.89 13.4552 162.396 5.59133 199.125C-2.27256 235.854 -1.82458 273.877 6.90248 310.41C15.6295 346.944 32.4148 381.064 56.03 410.274C79.6451 439.483 109.492 463.043 143.388 479.229C177.283 495.415 214.368 503.817 251.93 503.821C291.644 503.938 330.812 494.564 366.17 476.481C400.316 459.011 430.063 434.037 453.18 403.431L456.37 399.211L454.36 394.321ZM434.62 397.031C434.54 397.141 434.45 397.261 434.37 397.361H434.36C434.19 397.581 434.03 397.801 433.85 398.011C433.46 398.501 433.06 398.971 432.67 399.461C432.24 399.981 431.83 400.501 431.39 401.011C431.16 401.281 430.95 401.561 430.71 401.821C430.36 402.231 430.01 402.661 429.65 403.081C429.26 403.531 428.88 403.981 428.48 404.431C427.99 404.991 427.51 405.551 427.02 406.101C427.001 406.137 426.974 406.168 426.94 406.191C426.32 406.901 425.71 407.591 425.08 408.281C424.52 408.901 423.96 409.501 423.4 410.111C422.67 410.911 421.93 411.691 421.18 412.491C420.51 413.181 419.85 413.871 419.18 414.561C419.04 414.701 418.89 414.841 418.76 414.991C418.39 415.371 418.03 415.751 417.66 416.121C417.28 416.491 416.91 416.851 416.53 417.231C415.75 418.011 414.96 418.781 414.16 419.551C411.74 421.891 409.277 424.171 406.77 426.391C405.97 427.111 405.17 427.811 404.36 428.511C403.52 429.241 402.68 429.961 401.83 430.671C401.03 431.341 400.22 432.021 399.4 432.681C399.24 432.811 399.09 432.941 398.92 433.071C398.18 433.681 397.43 434.271 396.68 434.871C395.86 435.511 395.04 436.161 394.21 436.791C393.47 437.381 392.72 437.951 391.97 438.491C391.58 438.801 391.18 439.101 390.78 439.391C390.16 439.861 389.55 440.311 388.92 440.771C388.77 440.861 388.64 440.971 388.51 441.061C387.81 441.561 387.12 442.061 386.42 442.551C386.16 442.741 385.89 442.931 385.63 443.111C385.01 443.551 384.39 443.991 383.76 444.411C383.5 444.601 383.24 444.771 382.97 444.951C382.31 445.411 381.65 445.861 380.98 446.301C380.73 446.461 380.48 446.621 380.24 446.791C379.64 447.181 379.04 447.571 378.43 447.961C378.1 448.181 377.78 448.391 377.46 448.591C376.85 448.991 376.23 449.381 375.61 449.761C375.29 449.961 374.97 450.161 374.65 450.371C373.9 450.831 373.15 451.291 372.39 451.751C372.31 451.811 372.22 451.851 372.14 451.901C371.21 452.461 370.27 453.021 369.33 453.571C368.43 454.101 367.53 454.611 366.61 455.141C366.548 455.17 366.488 455.204 366.43 455.241C365.49 455.771 364.53 456.301 363.58 456.831C361.64 457.881 359.687 458.911 357.72 459.921C314.789 481.717 266.171 489.711 218.521 482.808C170.872 475.906 126.521 454.444 91.54 421.361C80.4782 410.902 70.4609 399.391 61.63 386.991C35.3118 349.92 20.3954 305.969 18.7135 260.537C17.0315 215.106 28.6571 170.172 52.1622 131.257C75.6672 92.3417 110.028 61.1401 151.022 41.4853C192.017 21.8305 237.86 14.5787 282.92 20.6208C269.43 25.3879 257.12 32.9969 246.825 42.9332C236.53 52.8695 228.49 64.9011 223.247 78.2141C218.005 91.5271 215.683 105.811 216.439 120.099C217.196 134.387 221.012 148.345 227.63 161.031C184.22 155.601 158.6 181.091 158.6 181.091C173.865 176.033 190.031 174.283 206.024 175.955C222.018 177.628 237.472 182.685 251.36 190.791C256.12 194.839 261.246 198.438 266.67 201.541C279.15 211.964 289.259 224.933 296.32 239.581C301.562 250.46 305 262.119 306.5 274.101C305.82 273.981 305.14 273.851 304.45 273.731C302.62 273.411 300.77 273.121 298.93 272.851C298.39 272.781 297.86 272.691 297.32 272.631C296.75 272.551 296.18 272.481 295.61 272.401C295.508 272.381 295.404 272.368 295.3 272.361C294.77 272.301 294.22 272.231 293.68 272.171C292.47 272.031 291.26 271.881 290.06 271.761H290.04C283.51 271.121 276.84 270.791 270.21 270.791H269.21C268.7 270.791 268.19 270.801 267.68 270.801C267.06 270.811 266.45 270.821 265.85 270.841C265.36 270.851 264.87 270.861 264.37 270.871C262.85 270.921 261.32 270.981 259.79 271.061C259.22 271.091 258.64 271.121 258.07 271.161C257.49 271.191 256.92 271.231 256.34 271.281C255.77 271.311 255.2 271.351 254.62 271.401C254.04 271.441 253.47 271.491 252.9 271.541C250.92 271.721 248.95 271.911 246.99 272.131L245.92 272.261C244.82 272.401 243.73 272.541 242.64 272.691C239.6 273.121 236.59 273.611 233.59 274.171C232.1 274.451 230.61 274.741 229.11 275.061C222.67 276.421 216.327 278.091 210.08 280.071C205.47 281.531 200.923 283.157 196.44 284.951C191.62 286.871 186.883 288.977 182.23 291.271C182.12 291.321 182.01 291.371 181.92 291.421C180.08 292.321 173.68 295.661 172.78 296.271C112.73 335.641 114.58 378.521 114.58 378.521C123.866 362.721 135.495 348.422 149.07 336.111C150.38 334.921 151.71 333.751 153.06 332.601C153.19 332.501 153.32 332.391 153.44 332.281C153.67 332.091 153.9 331.901 154.14 331.701C154.57 331.341 155.01 330.971 155.45 330.601C155.76 330.351 156.05 330.101 156.36 329.861C156.49 329.751 156.64 329.631 156.77 329.521C157.11 329.251 157.46 328.971 157.81 328.691C158.04 328.511 158.27 328.331 158.49 328.151C158.72 327.981 158.95 327.801 159.17 327.621C159.24 327.561 159.31 327.501 159.38 327.451C159.45 327.391 159.52 327.341 159.59 327.291C159.81 327.111 160.05 326.941 160.28 326.761L160.87 326.301C161.3 325.961 161.73 325.641 162.16 325.321C162.182 325.302 162.205 325.285 162.23 325.271C162.245 325.259 162.262 325.249 162.28 325.241C162.47 325.101 162.67 324.941 162.87 324.801C163.08 324.641 163.3 324.481 163.51 324.321C164.19 323.841 164.86 323.341 165.53 322.851C165.95 322.561 166.36 322.261 166.77 321.981C167.16 321.711 167.56 321.431 167.95 321.161C168.18 320.991 168.41 320.851 168.64 320.681C168.82 320.561 169 320.431 169.18 320.311C169.229 320.284 169.276 320.254 169.32 320.221C169.76 319.921 170.21 319.641 170.65 319.341C171.19 318.981 171.72 318.641 172.26 318.281C173.39 317.551 174.53 316.831 175.67 316.131C176.15 315.831 176.62 315.531 177.1 315.251C178 314.701 178.91 314.161 179.82 313.641C180.25 313.381 180.68 313.141 181.11 312.901C181.37 312.751 181.64 312.611 181.92 312.451C182.06 312.371 182.2 312.281 182.36 312.201C182.53 312.091 182.73 312.001 182.92 311.891C182.94 311.881 182.97 311.861 183.01 311.841C183.13 311.781 183.25 311.711 183.37 311.651C184 311.301 184.63 310.951 185.27 310.621C185.49 310.501 185.69 310.381 185.9 310.261C185.95 310.241 186 310.211 186.04 310.191C186.33 310.051 186.62 309.901 186.9 309.751C187.19 309.611 187.48 309.441 187.77 309.301C188.19 309.071 188.61 308.871 189.03 308.661C189.109 308.613 189.193 308.573 189.28 308.541C189.314 308.517 189.351 308.497 189.39 308.481C189.445 308.455 189.499 308.425 189.55 308.391C189.97 308.191 190.4 307.981 190.81 307.781C191.42 307.481 192.02 307.181 192.62 306.891C192.68 306.861 192.74 306.841 192.8 306.811C193 306.721 193.21 306.621 193.41 306.531C193.56 306.451 193.73 306.371 193.9 306.301L194.37 306.071C194.94 305.811 195.5 305.551 196.07 305.301C196.43 305.131 196.79 304.971 197.16 304.811L197.37 304.721C197.38 304.721 197.38 304.711 197.39 304.711C197.41 304.701 197.42 304.691 197.44 304.691C197.472 304.672 197.506 304.655 197.54 304.641C197.572 304.632 197.602 304.618 197.63 304.601C197.678 304.587 197.724 304.57 197.77 304.551C198.38 304.281 198.99 304.001 199.61 303.741C199.614 303.737 199.619 303.734 199.624 303.732C199.629 303.731 199.635 303.73 199.64 303.731C199.63 303.741 199.62 303.751 199.61 303.751L199.67 303.721C200.03 303.571 200.39 303.421 200.75 303.281C200.811 303.247 200.875 303.217 200.94 303.191C201.02 303.161 201.11 303.121 201.19 303.091C201.51 302.951 201.84 302.811 202.18 302.671C202.78 302.421 203.4 302.181 204.01 301.931C204.4 301.781 204.79 301.621 205.19 301.481C205.53 301.341 205.89 301.221 206.22 301.091L206.9 300.841C206.93 300.831 206.98 300.801 207.02 300.791C207.33 300.671 207.62 300.571 207.93 300.451C208.11 300.391 208.29 300.321 208.47 300.261C209.08 300.031 209.69 299.821 210.3 299.601C210.62 299.481 210.96 299.381 211.28 299.261C211.68 299.111 212.09 298.981 212.49 298.841C212.78 298.751 213.05 298.651 213.32 298.561C213.94 298.351 214.57 298.141 215.2 297.951C215.33 297.901 215.46 297.871 215.6 297.821C216.61 297.501 217.62 297.191 218.63 296.891C218.671 296.881 218.711 296.867 218.75 296.851C218.85 296.831 218.95 296.791 219.06 296.761C219.091 296.758 219.121 296.751 219.15 296.741C219.185 296.737 219.219 296.727 219.25 296.711C219.39 296.661 219.53 296.631 219.68 296.581C220.08 296.461 220.48 296.341 220.89 296.221C221.53 296.051 222.17 295.871 222.8 295.701C223.37 295.551 223.93 295.401 224.5 295.251C224.58 295.231 224.65 295.211 224.73 295.191C225.37 295.021 226.01 294.861 226.65 294.701C226.71 294.681 226.75 294.671 226.81 294.651C228.05 294.361 229.28 294.061 230.51 293.781C231.16 293.641 231.79 293.501 232.42 293.371C233.08 293.231 233.74 293.081 234.39 292.951C234.99 292.831 235.57 292.731 236.15 292.611C236.33 292.571 236.51 292.541 236.68 292.511C237.13 292.431 237.59 292.351 238.06 292.261C238.185 292.231 238.312 292.207 238.44 292.191C238.63 292.161 238.83 292.121 239.03 292.081C240.09 291.891 241.16 291.711 242.24 291.551C243.48 291.351 244.73 291.181 245.99 291.001C246.054 290.999 246.117 290.992 246.18 290.981C246.47 290.941 246.76 290.911 247.05 290.871C247.94 290.751 248.85 290.641 249.74 290.541C249.786 290.533 249.833 290.529 249.88 290.531C249.928 290.536 249.976 290.529 250.02 290.511L250.21 290.491L250.27 290.481H250.32L250.57 290.441V290.451L250.82 290.421C250.904 290.416 250.987 290.406 251.07 290.391C251.89 290.311 252.7 290.231 253.52 290.161H253.56C253.58 290.141 253.59 290.141 253.62 290.141C253.78 290.131 253.95 290.121 254.1 290.101H254.14C254.41 290.071 254.68 290.051 254.95 290.031C257.02 289.861 259.097 289.721 261.18 289.611C261.34 289.611 261.49 289.601 261.65 289.591C261.81 289.571 261.98 289.571 262.15 289.561C262.3 289.561 262.44 289.551 262.6 289.551H262.37C262.447 289.552 262.524 289.549 262.6 289.541C263.45 289.511 264.32 289.481 265.19 289.451C265.38 289.451 265.56 289.451 265.75 289.441C265.846 289.432 265.943 289.429 266.04 289.431C266.13 289.431 266.21 289.421 266.31 289.421C267.61 289.391 268.92 289.381 270.21 289.381C305.109 289.338 339.269 299.437 368.536 318.449C397.802 337.461 420.914 364.567 435.06 396.471C434.927 396.668 434.78 396.855 434.62 397.031V397.031Z" fill="#233C84"/>
<path d="M435.06 396.471C434.927 396.668 434.78 396.855 434.62 397.031C434.54 397.141 434.45 397.261 434.37 397.361H434.36C434.19 397.581 434.03 397.801 433.85 398.011C433.46 398.501 433.06 398.971 432.67 399.461C432.24 399.981 431.83 400.501 431.39 401.011C431.16 401.281 430.95 401.561 430.71 401.821C430.36 402.231 430.01 402.661 429.65 403.081C429.26 403.531 428.88 403.981 428.48 404.431C427.99 404.991 427.51 405.551 427.02 406.101C427.002 406.137 426.974 406.168 426.94 406.191C426.32 406.901 425.71 407.591 425.08 408.281C424.52 408.901 423.96 409.501 423.4 410.111C422.67 410.911 421.93 411.691 421.18 412.491C420.51 413.181 419.85 413.871 419.18 414.561C419.04 414.701 418.89 414.841 418.76 414.991C418.39 415.371 418.03 415.751 417.66 416.121C417.28 416.491 416.91 416.851 416.53 417.231C415.75 418.011 414.96 418.781 414.16 419.551C411.74 421.891 409.277 424.171 406.77 426.391C405.97 427.111 405.17 427.811 404.36 428.511C403.52 429.241 402.68 429.961 401.83 430.671C401.03 431.341 400.22 432.021 399.4 432.681C399.24 432.811 399.09 432.941 398.92 433.071C398.18 433.681 397.43 434.271 396.68 434.871C395.86 435.511 395.04 436.161 394.21 436.791C393.47 437.381 392.72 437.951 391.97 438.491C391.58 438.801 391.18 439.101 390.78 439.391C390.16 439.861 389.55 440.311 388.92 440.771C388.77 440.861 388.64 440.971 388.51 441.061C387.81 441.561 387.12 442.061 386.42 442.551C386.16 442.741 385.89 442.931 385.63 443.111C385.01 443.551 384.39 443.991 383.76 444.411C383.5 444.601 383.24 444.771 382.97 444.951C382.31 445.411 381.65 445.861 380.98 446.301C380.73 446.461 380.48 446.621 380.24 446.791C379.64 447.181 379.04 447.571 378.43 447.961C378.1 448.181 377.78 448.391 377.46 448.591C376.85 448.991 376.23 449.381 375.61 449.761C375.29 449.961 374.97 450.161 374.65 450.371C373.9 450.831 373.15 451.291 372.39 451.751C372.31 451.811 372.22 451.851 372.14 451.901C371.21 452.461 370.27 453.021 369.33 453.571C368.43 454.101 367.53 454.611 366.61 455.141C366.548 455.17 366.488 455.204 366.43 455.241C365.49 455.771 364.53 456.301 363.58 456.831C361.64 457.881 359.687 458.911 357.72 459.921C314.789 481.717 266.171 489.711 218.521 482.809C170.872 475.906 126.521 454.444 91.54 421.361C80.4782 410.902 70.461 399.391 61.6301 386.991C35.3119 349.92 20.3955 305.969 18.7135 260.538C17.0315 215.106 28.6572 170.172 52.1622 131.257C75.6672 92.3418 110.028 61.1402 151.023 41.4854C192.017 21.8307 237.86 14.5789 282.92 20.621C269.43 25.388 257.12 32.9971 246.825 42.9333C236.53 52.8696 228.49 64.9013 223.247 78.2142C218.005 91.5272 215.683 105.811 216.44 120.099C217.196 134.387 221.012 148.346 227.63 161.031C184.22 155.601 158.6 181.091 158.6 181.091C173.865 176.034 190.031 174.283 206.024 175.955C222.018 177.628 237.472 182.685 251.36 190.791C256.121 194.839 261.246 198.438 266.67 201.541C279.15 211.964 289.259 224.934 296.32 239.581C301.562 250.46 305 262.119 306.5 274.101C305.82 273.981 305.14 273.851 304.45 273.731C302.62 273.411 300.77 273.121 298.93 272.851C298.39 272.781 297.86 272.691 297.32 272.631C296.75 272.551 296.18 272.481 295.61 272.401C295.508 272.381 295.404 272.368 295.3 272.361C294.77 272.301 294.22 272.231 293.68 272.171C292.47 272.031 291.26 271.881 290.06 271.761H290.04C283.51 271.121 276.84 270.791 270.21 270.791H269.21C268.7 270.791 268.19 270.801 267.68 270.801C267.06 270.811 266.45 270.821 265.85 270.841C265.36 270.851 264.87 270.861 264.37 270.871C262.85 270.921 261.32 270.981 259.79 271.061C259.22 271.091 258.64 271.121 258.07 271.161C257.49 271.191 256.92 271.231 256.34 271.281C255.77 271.311 255.2 271.351 254.62 271.401C254.04 271.441 253.47 271.491 252.9 271.541C250.92 271.721 248.95 271.911 246.99 272.131L245.92 272.261C244.82 272.401 243.73 272.541 242.64 272.691C239.6 273.121 236.59 273.611 233.59 274.171C232.1 274.451 230.61 274.741 229.11 275.061C222.67 276.421 216.327 278.091 210.08 280.071C205.47 281.531 200.923 283.158 196.44 284.951C191.62 286.871 186.883 288.978 182.23 291.271C182.12 291.321 182.01 291.371 181.92 291.421C180.08 292.321 173.68 295.661 172.78 296.271C112.73 335.641 114.58 378.521 114.58 378.521C123.866 362.722 135.495 348.422 149.07 336.111C150.38 334.921 151.71 333.751 153.06 332.601C153.19 332.501 153.32 332.391 153.44 332.281C153.67 332.091 153.9 331.901 154.14 331.701C154.57 331.341 155.01 330.971 155.45 330.601C155.76 330.351 156.05 330.101 156.36 329.861C156.49 329.751 156.64 329.631 156.77 329.521C157.11 329.251 157.46 328.971 157.81 328.691C158.04 328.511 158.27 328.331 158.49 328.151C158.72 327.981 158.95 327.801 159.17 327.621C159.24 327.561 159.31 327.501 159.38 327.451C159.45 327.391 159.52 327.341 159.59 327.291C159.81 327.111 160.05 326.941 160.28 326.761L160.87 326.301C161.3 325.961 161.73 325.641 162.16 325.321C162.182 325.302 162.205 325.285 162.23 325.271C162.245 325.259 162.262 325.249 162.28 325.241C162.47 325.101 162.67 324.941 162.87 324.801C163.08 324.641 163.3 324.481 163.51 324.321C164.19 323.841 164.86 323.341 165.53 322.851C165.95 322.561 166.36 322.261 166.77 321.981C167.16 321.711 167.56 321.431 167.95 321.161C168.18 320.991 168.41 320.851 168.64 320.681C168.82 320.561 169 320.431 169.18 320.311C169.229 320.285 169.276 320.254 169.32 320.221C169.76 319.921 170.21 319.641 170.65 319.341C171.19 318.981 171.72 318.641 172.26 318.281C173.39 317.551 174.53 316.831 175.67 316.131C176.15 315.831 176.62 315.531 177.1 315.251C178 314.701 178.91 314.161 179.82 313.641C180.25 313.381 180.68 313.141 181.11 312.901C181.37 312.751 181.64 312.611 181.92 312.451C182.06 312.371 182.2 312.281 182.36 312.201C182.53 312.091 182.73 312.001 182.92 311.891C182.94 311.881 182.97 311.861 183.01 311.841C183.13 311.781 183.25 311.711 183.37 311.651C184 311.301 184.63 310.951 185.27 310.621C185.49 310.501 185.69 310.381 185.9 310.261C185.95 310.241 186 310.211 186.04 310.191C186.33 310.051 186.62 309.901 186.9 309.751C187.19 309.611 187.48 309.441 187.77 309.301C188.19 309.071 188.61 308.871 189.03 308.661C189.109 308.613 189.193 308.573 189.28 308.541C189.314 308.517 189.351 308.497 189.39 308.481C189.445 308.455 189.499 308.425 189.55 308.391C189.97 308.191 190.4 307.981 190.81 307.781C191.42 307.481 192.02 307.181 192.62 306.891C192.68 306.861 192.74 306.841 192.8 306.811C193 306.721 193.21 306.621 193.41 306.531C193.56 306.451 193.73 306.371 193.9 306.301L194.37 306.071C194.94 305.811 195.5 305.551 196.07 305.301C196.43 305.131 196.79 304.971 197.16 304.811L197.37 304.721C197.38 304.721 197.38 304.711 197.39 304.711C197.41 304.701 197.42 304.691 197.44 304.691C197.472 304.672 197.506 304.656 197.54 304.641C197.572 304.632 197.602 304.618 197.63 304.601C197.678 304.587 197.724 304.57 197.77 304.551C198.38 304.281 198.99 304.001 199.61 303.741C199.614 303.737 199.619 303.734 199.624 303.733C199.629 303.731 199.635 303.73 199.64 303.731C199.63 303.741 199.62 303.751 199.61 303.751L199.67 303.721C200.03 303.571 200.39 303.421 200.75 303.281C200.811 303.247 200.875 303.217 200.94 303.191C201.02 303.161 201.11 303.121 201.19 303.091C201.51 302.951 201.84 302.811 202.18 302.671C202.78 302.421 203.4 302.181 204.01 301.931C204.4 301.781 204.79 301.621 205.19 301.481C205.53 301.341 205.89 301.221 206.22 301.091L206.9 300.841C206.93 300.831 206.98 300.801 207.02 300.791C207.33 300.671 207.62 300.571 207.93 300.451C208.11 300.391 208.29 300.321 208.47 300.261C209.08 300.031 209.69 299.821 210.3 299.601C210.62 299.481 210.96 299.381 211.28 299.261C211.68 299.111 212.09 298.981 212.49 298.841C212.78 298.751 213.05 298.651 213.32 298.561C213.94 298.351 214.57 298.141 215.2 297.951C215.33 297.901 215.46 297.871 215.6 297.821C216.61 297.501 217.62 297.191 218.63 296.891C218.671 296.881 218.711 296.867 218.75 296.851C218.85 296.831 218.95 296.791 219.06 296.761C219.091 296.758 219.121 296.751 219.15 296.741C219.185 296.737 219.219 296.727 219.25 296.711C219.39 296.661 219.53 296.631 219.68 296.581C220.08 296.461 220.48 296.341 220.89 296.221C221.53 296.051 222.17 295.871 222.8 295.701C223.37 295.551 223.93 295.401 224.5 295.251C224.58 295.231 224.65 295.211 224.73 295.191C225.37 295.021 226.01 294.861 226.65 294.701C226.71 294.681 226.75 294.671 226.81 294.651C228.05 294.361 229.28 294.061 230.51 293.781C231.16 293.641 231.79 293.501 232.42 293.371C233.08 293.231 233.74 293.081 234.39 292.951C234.99 292.831 235.57 292.731 236.15 292.611C236.33 292.571 236.51 292.541 236.68 292.511C237.13 292.431 237.59 292.351 238.06 292.261C238.185 292.231 238.312 292.208 238.44 292.191C238.63 292.161 238.83 292.121 239.03 292.081C240.09 291.891 241.16 291.711 242.24 291.551C243.48 291.351 244.73 291.181 245.99 291.001C246.054 290.999 246.117 290.993 246.18 290.981C246.47 290.941 246.76 290.911 247.05 290.871C247.94 290.751 248.85 290.641 249.74 290.541C249.786 290.533 249.833 290.529 249.88 290.531C249.928 290.537 249.976 290.53 250.02 290.511L250.21 290.491L250.27 290.481H250.32L250.57 290.441V290.451L250.82 290.421C250.904 290.416 250.987 290.406 251.07 290.391C251.89 290.311 252.7 290.231 253.52 290.161H253.56C253.58 290.141 253.59 290.141 253.62 290.141C253.78 290.131 253.95 290.121 254.1 290.101H254.14C254.41 290.071 254.68 290.051 254.95 290.031C257.02 289.861 259.097 289.721 261.18 289.611C261.34 289.611 261.49 289.601 261.65 289.591C261.81 289.571 261.98 289.571 262.15 289.561C262.3 289.561 262.44 289.551 262.6 289.551H262.37C262.447 289.553 262.524 289.549 262.6 289.541C263.45 289.511 264.32 289.481 265.19 289.451C265.38 289.451 265.56 289.451 265.75 289.441C265.846 289.433 265.943 289.429 266.04 289.431C266.13 289.431 266.21 289.421 266.31 289.421C267.61 289.391 268.92 289.381 270.21 289.381C305.11 289.338 339.27 299.437 368.536 318.449C397.802 337.461 420.914 364.567 435.06 396.471V396.471Z" fill="#F7F2F0"/>
<path d="M423.106 93.3303C421.857 91.9622 420.572 90.606 419.276 89.2736C418.169 88.1316 417.063 87.0136 415.933 85.9069C415.802 85.7642 415.659 85.6214 415.516 85.4906C414.529 84.515 413.541 83.5633 412.542 82.6116C411.4 81.5171 410.246 80.4464 409.08 79.3877C408.021 78.4241 406.963 77.4723 405.892 76.5325C405.594 76.2708 405.285 75.9972 404.976 75.7354C404.226 75.0812 403.477 74.4388 402.727 73.8082C402.263 73.4037 401.799 73.0111 401.323 72.6305C399.443 71.0483 397.54 69.5136 395.601 68.0027C394.971 67.4912 394.328 67.0034 393.686 66.5157C392.901 65.9091 392.116 65.3142 391.33 64.7312C390.712 64.2791 390.093 63.8152 389.474 63.3631C389.118 63.1014 388.749 62.8397 388.392 62.5898C387.785 62.1378 387.167 61.6976 386.548 61.2698C385.727 60.6868 384.894 60.1039 384.062 59.5329C383.419 59.0929 382.789 58.6529 382.146 58.2243C380.088 56.8443 378.006 55.4881 375.901 54.1795C375.318 53.8107 374.747 53.4419 374.152 53.085C373.045 52.4069 371.939 51.7288 370.821 51.0745C369.572 50.325 368.311 49.5993 367.05 48.8855L367.038 48.8736C360.899 45.388 354.618 42.1919 348.194 39.2851C337.915 35.5755 327.084 33.6248 316.156 33.5151C299.676 33.5235 283.587 38.5398 270.022 47.8994C256.458 57.2589 246.057 70.5197 240.2 85.9241C234.343 101.329 233.305 118.149 237.224 134.157C241.144 150.164 249.835 164.603 262.146 175.559C267.419 178.737 272.464 182.279 277.243 186.159L279.111 187.718C292.458 198.982 303.454 212.767 311.469 228.285C315.526 229.759 319.81 230.511 324.127 230.509C327.285 230.506 330.431 230.106 333.489 229.319C331.435 226.754 330.319 223.564 330.325 220.278C330.325 217.787 330.964 215.338 332.181 213.165C333.397 210.992 335.151 209.167 337.274 207.865C339.397 206.563 341.819 205.827 344.308 205.728C346.796 205.629 349.269 206.17 351.489 207.299C352.822 196.363 356.071 185.748 361.089 175.94C361.422 175.274 361.767 174.62 362.112 173.977L362.076 173.917C362.112 173.893 362.148 173.881 362.183 173.857C368.38 162.433 376.831 152.384 387.023 144.318C391.348 134.905 393.572 124.663 393.542 114.304C393.542 112.995 393.507 111.698 393.435 110.461L392.817 99.4092L403.821 100.718C405.242 100.888 406.672 100.975 408.104 100.98C414.304 100.996 420.395 99.3531 425.746 96.2209C424.879 95.2453 423.999 94.2817 423.106 93.3303ZM327.506 182.506C327.506 182.506 319.214 168.064 310.589 165.137C310.316 165.042 310.042 164.971 309.769 164.9C305.153 163.734 287.427 165.292 287.427 165.292C289.432 160.699 292.958 156.936 297.411 154.637C301.864 152.338 306.973 151.642 311.878 152.667C316.784 153.691 321.187 156.374 324.348 160.264C327.508 164.153 329.232 169.013 329.231 174.024C329.235 176.939 328.648 179.824 327.506 182.506V182.506ZM310.149 95.8048C305.963 94.9679 301.72 94.4509 297.456 94.2583C292.994 96.3996 286.558 101.17 280.301 106.274C272.782 112.377 265.525 118.955 262.242 121.989C261.076 123.06 260.398 123.69 260.398 123.69C260.445 123.012 260.505 122.334 260.564 121.668C261.562 112.284 265.038 103.333 270.634 95.7346C276.23 88.1358 283.746 82.1615 292.411 78.424L293.827 77.8173L295.374 77.7697C304.778 77.4714 314.092 79.6892 322.353 84.194C330.614 88.6988 337.522 95.3272 342.365 103.395C342.365 103.395 324.484 98.422 310.149 95.8048H310.149Z" fill="#F7F2F0"/>
<path d="M199.64 303.731C199.65 303.731 199.65 303.731 199.67 303.721L199.61 303.751C199.62 303.751 199.63 303.741 199.64 303.731Z" fill="#DFDFDF"/>
<path d="M223.41 295.531C223.77 295.441 224.14 295.341 224.5 295.251C223.93 295.401 223.37 295.551 222.8 295.701C223.01 295.641 223.21 295.591 223.41 295.531Z" fill="#DFDFDF"/>
<path d="M262.6 289.551C262.44 289.551 262.3 289.561 262.15 289.561C262.224 289.562 262.297 289.559 262.37 289.551H262.6Z" fill="#DFDFDF"/>
<path d="M342.364 103.394C342.364 103.394 324.484 98.4217 310.149 95.8044C305.963 94.9674 301.719 94.4504 297.455 94.2579C292.994 96.3992 286.558 101.17 280.3 106.273C272.782 112.376 265.525 118.955 262.241 121.988C261.076 123.059 260.397 123.69 260.397 123.69C260.445 123.012 260.504 122.333 260.564 121.667C261.562 112.283 265.037 103.333 270.633 95.7342C276.229 88.1353 283.745 82.1611 292.411 78.4236L293.826 77.8169L295.373 77.7693C304.778 77.4709 314.091 79.6887 322.352 84.1935C330.613 88.6983 337.522 95.3268 342.364 103.394V103.394Z" fill="#233C84"/>
<path d="M329.231 174.024C329.234 176.939 328.648 179.824 327.506 182.506C327.506 182.506 319.214 168.064 310.589 165.137C310.316 165.042 310.042 164.971 309.768 164.899C305.153 163.733 287.427 165.292 287.427 165.292C289.432 160.699 292.957 156.936 297.41 154.637C301.863 152.338 306.972 151.642 311.878 152.666C316.784 153.691 321.187 156.374 324.347 160.264C327.508 164.153 329.232 169.012 329.231 174.024V174.024Z" fill="#233C84"/>
</g>
<defs>
<clipPath id="clip0_723_745">
<rect width="456" height="504" fill="white"/>
</clipPath>
</defs>
</svg>
